<svg xmlns="http://www.w3.org/2000/svg" version="1.0" preserveAspectRatio="xMidYMid meet" viewBox="76 32.94 111 28.4">

<g transform="translate(0.000000,140.000000) scale(0.100000,-0.100000)" fill="#000000" stroke="none">
<path d="M1433 1050 c-87 -53 -96 -176 -17 -236 41 -32 125 -37 152 -10 23 23 9 30 -31 15 -42 -15 -81 -6 -113 26 -20 20 -24 34 -24 80 0 50 4 60 30 87 26 26 36 29 73 26 23 -3 48 -6 56 -9 29 -9 20 19 -10 30 -46 16 -80 14 -116 -9z"/>
<path d="M1669 1047 c-41 -27 -71 -85 -67 -128 l3 -31 58 39 c60 41 131 119 121 134 -10 18 -81 9 -115 -14z"/>
<path d="M760 1045 c0 -11 12 -15 50 -15 l50 0 0 -120 c0 -100 3 -120 15 -120 13 0 15 20 15 120 l0 120 45 0 c33 0 45 4 45 15 0 12 -19 15 -110 15 -91 0 -110 -3 -110 -15z"/>
<path d="M1035 925 c0 -101 3 -135 13 -135 9 0 12 34 12 135 0 101 -3 135 -12 135 -10 0 -13 -34 -13 -135z"/>
<path d="M1140 925 l0 -135 54 0 c29 0 67 5 84 11 55 19 64 90 15 118 -17 9 -16 11 1 30 25 28 24 71 -4 93 -16 13 -39 18 -86 18 l-64 0 0 -135z m134 89 c21 -20 20 -30 -4 -54 -13 -13 -33 -20 -60 -20 l-40 0 0 45 0 45 44 0 c27 0 51 -6 60 -16z m4 -116 c18 -18 14 -56 -7 -68 -11 -5 -38 -10 -60 -10 l-41 0 0 45 0 45 48 0 c26 0 53 -5 60 -12z"/>
<path d="M1759 990 c-24 -33 -65 -76 -91 -96 -27 -20 -48 -40 -48 -45 0 -37 92 47 155 141 38 57 40 33 2 -30 -30 -50 -95 -137 -108 -146 -19 -12 12 -24 64 -24 80 0 137 56 137 135 0 46 -23 100 -47 114 -17 8 -26 1 -64 -49z"/>
</g>
</svg>