<svg xmlns="http://www.w3.org/2000/svg" viewBox="0 0 79.62 76.18"><rect width="79.62" height="76.18" fill="#fff" opacity="0"/><path d="M43.83,63.09h0Z" fill="#2e5eaa"/><path d="M70.66,51.22a5.3,5.3,0,0,0-3-1h-.5a5.28,5.28,0,0,0-1.84.29l-.62.22A25.36,25.36,0,0,0,61,52.25c-2.19,1.21-4.37,2.49-6.48,3.73l-2.8,1.64a7.55,7.55,0,0,1-.85.43,5.26,5.26,0,0,0,.18-.6,5.15,5.15,0,0,0-3.76-6.12c-.3-.08-.57-.13-.82-.18l-.48-.1-2.78-.87c-2.46-.76-5-1.54-7.44-2.42A11.27,11.27,0,0,0,32,47.07a10,10,0,0,0-5,1.35c-2.61,1.47-5.25,3-7.79,4.46l-2,1.13C16.07,46,18.22,44,20.09,42.86c2.07-1.2,7.21-3.55,14-6.44l.41-.15a13.17,13.17,0,0,0,9,4.14h.8a13.27,13.27,0,0,0,8.87-4.15l.41.16c6.77,2.89,11.92,5.24,14,6.44C69.16,43.81,71,45.46,70.66,51.22Z" fill="#2e5eaa"/><path d="M43.81,63.1h0Z" fill="#2e5eaa"/><path d="M43.53,37.77h0Z" fill="#2e5eaa"/><path d="M43.37.38h0Z" fill="#2e5eaa"/><path d="M43.83,37.77h0Z" fill="#2e5eaa"/><path d="M44.35.38h0Z" fill="#2e5eaa"/><path d="M55.08,27.1c0,3-4.28,10.42-10.92,10.66h-.63c-6.68-.19-11-7.68-11-10.67-3.08-2.07-3.13-8.84-.92-8.84C28.21,11.48,33.22.67,43.37.39h1C48.15.53,51.67,2.3,53,5.33c3.13-.67,5,5.81,3,12.93C58.2,18.26,58.15,25,55.08,27.1Z" fill="#2e5eaa"/><path d="M24.48,68.71c-.08-.12-.14-.18-.18-.25L17.74,56.89c.05-.07.07-.14.12-.17,3.48-2,7-4,10.45-6a7.52,7.52,0,0,1,6.58-.48c3.4,1.23,6.88,2.24,10.32,3.32.46.15.95.2,1.41.32a2.48,2.48,0,0,1,1.86,3,2.31,2.31,0,0,1-3,1.77c-2.56-.63-5.1-1.32-7.64-2l-.45-.11a1.06,1.06,0,0,0-1.35.71,1,1,0,0,0,.77,1.32q1.86.54,3.75,1c2.19.53,4.38,1.1,6.6,1.52a8.41,8.41,0,0,0,5.88-1.15c3.07-1.78,6.12-3.62,9.23-5.33A27.34,27.34,0,0,1,66.17,53a3.9,3.9,0,0,1,1.37-.12A2.41,2.41,0,0,1,70,54.71a2.77,2.77,0,0,1-1.1,3.18c-3.51,2.2-7,4.39-10.56,6.58-2.53,1.57-5.12,3.07-7.59,4.75A9.14,9.14,0,0,1,43,70.53c-5-1.22-10-2.25-15-3.33a1.86,1.86,0,0,0-1.11.18C26,67.76,25.3,68.23,24.48,68.71Z" fill="#f06530"/><path d="M13.36,54a4.4,4.4,0,0,1,.67.76q2.47,4.32,4.91,8.64t5,8.94c.49.88.43,1.14-.44,1.63l-2.92,1.65c-.7.38-1,.31-1.4-.37q-5-8.9-10.07-17.81c-.4-.69-.31-1,.36-1.4l3.09-1.75A7.1,7.1,0,0,1,13.36,54Zm.3,3.57a1.23,1.23,0,0,0-1.24-1.26,1.25,1.25,0,0,0-1.26,1.18,1.25,1.25,0,1,0,2.5.08Z" fill="#f06530"/></svg>