<svg xmlns="http://www.w3.org/2000/svg" width="136.58" height="136.58" viewBox="0 0 136.58 136.58"><rect width="136.58" height="136.58" rx="23.34" fill="#0266ff"/><polygon points="82.5 68.74 111.92 87.34 111.92 49.36 82.5 68.74" fill="#fff"/><polygon points="24.66 49.36 24.66 87.34 54.08 68.74 24.66 49.36" fill="#fff"/><path d="M106.47,38.3H30.12a5.37,5.37,0,0,0-5.29,4.64L68.29,71.57l43.47-28.63A5.39,5.39,0,0,0,106.47,38.3Z" fill="#fff"/><path d="M77.51,72l-7.72,5.09a2.78,2.78,0,0,1-3,0L59.07,72,24.84,93.68a5.39,5.39,0,0,0,5.28,4.61h76.35a5.39,5.39,0,0,0,5.28-4.61Z" fill="#fff"/></svg>