<svg xmlns="http://www.w3.org/2000/svg" xmlns:xlink="http://www.w3.org/1999/xlink" viewBox="0 0 79.91 78.93"><defs><clipPath id="a" transform="translate(0.29)"><rect x="2" width="75.61" height="75.61" rx="34.21" fill="none"/></clipPath></defs><rect x="0.29" width="79.62" height="76.18" fill="#fff" opacity="0"/><g clip-path="url(#a)"><path d="M25,77.3h0Z" transform="translate(0.29)" fill="#2e5eaa"/><polygon points="49.75 71.3 48.95 75.97 36.66 77.66 36.93 71.3 50.02 69.87 49.75 71.3" fill="#2e5eaa"/><path d="M68.45,53.84v8.39L55.73,78.53l-13.41.4a28.35,28.35,0,0,0,6.83-2.67l1.63-.65.61-3.91c1-4.68,1.07-8.17.33-10.67a7.22,7.22,0,0,0-3.48-4.44c-1.37-.8-3.85-2-6.46-3.14a3,3,0,0,1,1.54-2.7c.94-.54,3.14-1.56,6.07-2.82a7.81,7.81,0,0,0,5.52,2.73h.45A7.82,7.82,0,0,0,60.85,48c2.91,1.25,5.09,2.27,6,2.8C67.58,51.16,68.36,51.82,68.45,53.84Z" transform="translate(0.29)" fill="#f06530"/><path d="M49.45,71.3C40.58,76,34.62,77.12,25,77.3h0C15.31,77.12,9.35,76,.48,71.3c-2-9.7.27-11.87,2.21-13s6.77-3.34,13.13-6l.39-.14A12.4,12.4,0,0,0,24.64,56h.75a12.51,12.51,0,0,0,8.34-3.9l.38.15c6.36,2.71,11.19,4.92,13.13,6S51.44,61.6,49.45,71.3Z" transform="translate(0.29)" fill="#2e5eaa"/><path d="M25,77.31h0Z" transform="translate(0.29)" fill="#2e5eaa"/><path d="M24.71,53.51h0Z" transform="translate(0.29)" fill="#2e5eaa"/><path d="M24.56,18.4h0Z" transform="translate(0.29)" fill="#2e5eaa"/><path d="M25,53.52h0Z" transform="translate(0.29)" fill="#2e5eaa"/><path d="M25.47,18.4h0Z" transform="translate(0.29)" fill="#2e5eaa"/><path d="M35.55,43.49c0,2.8-4,9.79-10.25,10h-.59c-6.28-.17-10.33-7.21-10.33-10-2.89-1.94-2.94-8.3-.86-8.3-3.21-6.37,1.5-16.52,11-16.79h.91c3.58.13,6.89,1.79,8.1,4.63,2.93-.63,4.69,5.47,2.84,12.15C38.49,35.19,38.44,41.55,35.55,43.49Z" transform="translate(0.29)" fill="#2e5eaa"/></g><polygon points="55.4 60.8 55.4 60.8 55.39 60.8 55.4 60.8" fill="#2e5eaa"/><path d="M55.1,60.8h0Z" transform="translate(0.29)" fill="#2e5eaa"/><path d="M55,48.22h0Z" transform="translate(0.29)" fill="#2e5eaa"/><path d="M54.88,29.65h0Z" transform="translate(0.29)" fill="#2e5eaa"/><path d="M55.11,48.22h0Z" transform="translate(0.29)" fill="#2e5eaa"/><path d="M55.36,29.65h0Z" transform="translate(0.29)" fill="#2e5eaa"/><path d="M60.69,42.92c0,1.48-2.12,5.18-5.42,5.3H55c-3.32-.09-5.46-3.81-5.46-5.3-1.53-1-1.55-4.39-.45-4.39-1.7-3.37.79-8.73,5.83-8.87h.48a4.66,4.66,0,0,1,4.28,2.45c1.56-.33,2.49,2.89,1.51,6.42C62.25,38.53,62.22,41.9,60.69,42.92Z" transform="translate(0.29)" fill="#f06530"/><path d="M68.45,54.63v-.78Q68.46,54.21,68.45,54.63Z" transform="translate(0.29)" fill="#2e5eaa"/><polygon points="54.74 19.31 55.72 21.43 58.05 21.71 56.33 23.3 56.78 25.59 54.74 24.45 52.7 25.59 53.15 23.3 51.44 21.71 53.76 21.43 54.74 19.31" fill="#f06530"/><path d="M60.69,42.92c0,1.48-2.12,5.18-5.42,5.3H55c-3.32-.09-5.46-3.81-5.46-5.3-1.53-1-1.55-4.39-.45-4.39-1.7-3.37.79-8.73,5.83-8.87h.48a4.66,4.66,0,0,1,4.28,2.45c1.56-.33,2.49,2.89,1.51,6.42C62.25,38.53,62.22,41.9,60.69,42.92Z" transform="translate(0.29)" fill="#f06530"/></svg>