<svg xmlns="http://www.w3.org/2000/svg" viewBox="0 0 79.62 76.18"><rect width="79.62" height="76.18" fill="#fff" opacity="0"/><path d="M35.39,60.65Z" fill="#2e5eaa"/><path d="M48.87,39.11c-2,1.34-6.85,4.28-12.17,4.47a3,3,0,0,0-2.9,2.84c0,.31,0,.7-.08,1.15a45.86,45.86,0,0,0,.54,13c-8.46-.23-14-1.35-22-5.64-1.88-9.16.25-11.21,2.08-12.27s6.4-3.15,12.4-5.71l.37-.14a11.76,11.76,0,0,0,8,3.68h.7a11.79,11.79,0,0,0,7.87-3.69L44,37C45.76,37.75,47.39,38.46,48.87,39.11Z" fill="#2e5eaa"/><path d="M35.37,60.65h0Z" fill="#2e5eaa"/><path d="M35.13,38.19h0Z" fill="#2e5eaa"/><path d="M35,5h0Z" fill="#2e5eaa"/><path d="M35.39,38.19h0Z" fill="#2e5eaa"/><path d="M35.85,5h0Z" fill="#2e5eaa"/><path d="M45.36,28.73c0,2.64-3.79,9.24-9.67,9.46h-.56c-5.93-.16-9.75-6.81-9.75-9.46-2.73-1.83-2.77-7.84-.81-7.84C21.54,14.88,26,5.29,35,5h.86c3.38.12,6.5,1.69,7.64,4.38,2.77-.6,4.43,5.15,2.69,11.46C48.14,20.89,48.09,26.9,45.36,28.73Z" fill="#2e5eaa"/><path d="M52.85,54H50V52.58a1.41,1.41,0,1,1,2.82,0Z" fill="#f06530"/><rect x="47.83" y="56.18" width="7.21" height="6.04" fill="#f06530"/><path d="M66.73,46.55a.65.65,0,0,0-.63-.62c-6.8-.24-12.75-4.31-14.3-5.47a.66.66,0,0,0-.79,0c-1.55,1.15-7.44,5.22-14.23,5.46a.66.66,0,0,0-.64.62c-.27,5.06-3,24.37,15,28.78l.08,0a.58.58,0,0,0,.32,0l.25-.06C69.7,70.8,67,51.6,66.73,46.55ZM57.24,63.32a1.1,1.1,0,0,1-1.1,1.1h-9.4a1.1,1.1,0,0,1-1.1-1.1V55.08A1.09,1.09,0,0,1,46.74,54h1.09V52.58a3.61,3.61,0,1,1,7.21,0V54h1.1a1.09,1.09,0,0,1,1.1,1.09Z" fill="#f06530"/></svg>