<svg xmlns="http://www.w3.org/2000/svg" viewBox="0 0 79.62 76.18"><rect width="79.62" height="76.18" fill="#fff" opacity="0"/><path d="M72.32,16.69V68.51a2.71,2.71,0,0,1-2.71,2.72H41.84V47a5.51,5.51,0,0,0-.27-1.71l5.26-4.9,2.71,2.71a1.1,1.1,0,0,0,1.53.06,1.11,1.11,0,0,0,.33-.61L54,31.78a1.08,1.08,0,0,0-.8-1.3,1.06,1.06,0,0,0-.5,0l-10.79,2.6a1.07,1.07,0,0,0-.79,1.3,1,1,0,0,0,.28.5l3.2,3.2-4.9,4.58a5.37,5.37,0,0,0-3.21-1.06H15.06V16.69A2.71,2.71,0,0,1,17.78,14H69.61A2.71,2.71,0,0,1,72.32,16.69Z" fill="#f06530"/><path d="M39.19,47.54V73.46a2.71,2.71,0,0,1-2.71,2.72H10A2.72,2.72,0,0,1,7.3,73.46h0V47A2.72,2.72,0,0,1,10,44.28H36.48a2.69,2.69,0,0,1,1.18.28L22.15,59.05a1.61,1.61,0,0,0,1.1,2.79,1.56,1.56,0,0,0,1.09-.43Z" fill="#2e5eaa"/></svg>