<svg xmlns="http://www.w3.org/2000/svg" viewBox="0 0 79.62 76.18"><rect width="79.62" height="76.18" fill="#fff" opacity="0"/><path d="M56.85,47.94h2.92a20.87,20.87,0,0,0-5.06-12.2L52.65,37.8a1.48,1.48,0,0,1-1.89.18L38.92,49.43,39.11,33l-.19,0a1.49,1.49,0,0,1-1.49-1.49V28.57a20.88,20.88,0,0,0-12.18,5.09l2,2a1.5,1.5,0,0,1-1.05,2.55,1.53,1.53,0,0,1-1.06-.44l-2-2a20.78,20.78,0,0,0-5.08,12.18H21a1.49,1.49,0,1,1,0,3H18.07a20.78,20.78,0,0,0,5.08,12.17l2-2a1.49,1.49,0,0,1,2.11,2.11l-2,2a20.94,20.94,0,0,0,12.18,5.08V67.36a1.49,1.49,0,0,1,3,0v2.92A20.91,20.91,0,0,0,52.58,65.2l-2-2a1.49,1.49,0,0,1,2.11-2.11l2,2a20.84,20.84,0,0,0,5.08-12.17H56.85a1.49,1.49,0,0,1,0-3Z" fill="#f06530"/><path d="M38.92,25.56a23.87,23.87,0,1,1-16.88,7,23.68,23.68,0,0,1,16.88-7m0-2.15a26,26,0,1,0,26,26,26,26,0,0,0-26-26Z" fill="#2e5eaa"/><path d="M48.91,11.76v6.55a1.14,1.14,0,0,1-1.13,1.14H42.27v2.6a28.56,28.56,0,0,0-3.35-.2,28.9,28.9,0,0,0-3.37.2v-2.6H30a1.14,1.14,0,0,1-1.14-1.14V11.76A1.14,1.14,0,0,1,30,10.63H47.78A1.14,1.14,0,0,1,48.91,11.76Z" fill="#2e5eaa"/><path d="M70,31.26,66.5,34.79a.89.89,0,0,1-1.23,0l-3-3L61.08,33a27.61,27.61,0,0,0-3.42-3.82l1-1-3-3a.87.87,0,0,1,0-1.23l3.53-3.53a.87.87,0,0,1,1.23,0L70,30A.89.89,0,0,1,70,31.26Z" fill="#2e5eaa"/></svg>