<svg xmlns="http://www.w3.org/2000/svg" width="136.58" height="136.58" viewBox="0 0 136.58 136.58"><rect width="136.58" height="136.58" rx="23.34" fill="#7bc5f8"/><polygon points="116.04 30.8 116.04 30.8 116.04 30.8 116.04 30.8" fill="#fff"/><path d="M112.29,40.53a12.82,12.82,0,0,1-3.71.48l.07-.39c1.93-1.55,6.8-6.29,7.44-8.5.28-1,0-1.29,0-1.32l-6.22,2.64-5.2,2.34h0a20.75,20.75,0,0,0-15.1-6.22c-10.82,0-19.59,7.66-19.59,17.11a25.52,25.52,0,0,0,.8,6.46c0,.49,0-.5,0,0-7-.19-15.89-3.05-23.83-7.08C31.22,38.11,30.23,32.61,30.23,32.61,27.77,35.23,26.5,43.89,29,50.67c1.6,4.35,7.09,8.25,7.09,8.25h0a16.55,16.55,0,0,1-5-.82,11.12,11.12,0,0,1-3.55-1.74C26,60.1,29.05,66.76,34.36,71.54c3.09,2.79,8.74,4.54,8.74,4.54l-8.82.24c-.5,8.58,18,13.68,18,13.68h0a30.24,30.24,0,0,1-18.44,6.7,35,35,0,0,1-10.07-1.48c8.9,7.34,20.34,12.4,32.78,11.74,33-1.73,51.64-30.1,52.52-58l0,.06s1.55-.77,4.86-4.08a34.21,34.21,0,0,0,5.36-7.17S114.37,40,112.29,40.53Z" fill="#fff"/><path d="M116,30.8c0,.52,0,.05,0,0Z" fill="#fff"/></svg>