<svg xmlns="http://www.w3.org/2000/svg" width="136.58" height="136.58" viewBox="0 0 136.58 136.58"><rect width="136.58" height="136.58" rx="23.34" fill="#32ba46"/><path d="M68.29,120.59a52.14,52.14,0,0,1-26.08-7l-20.38,7L26,99A51.67,51.67,0,0,1,16,68.29a52.3,52.3,0,1,1,52.29,52.3ZM43.15,105l1.57,1A44.58,44.58,0,1,0,33.23,95.65l1.09,1.4L32,108.84Z" fill="#fff"/><path d="M41.89,48.2s3.07-5.37,5.57-5.67,5.72-.31,6.59,1.33S58.8,55,58.8,55a3.75,3.75,0,0,1-.36,3.22,31.94,31.94,0,0,1-3.32,3.88,2.85,2.85,0,0,0,0,3.37,61.73,61.73,0,0,0,7.36,9c4.09,4.1,12,7,12,7a2.39,2.39,0,0,0,1.84-.57c.72-.71,4.6-5.56,4.6-5.56a2.73,2.73,0,0,1,3.32-.67c2.07,1,11,5.42,11,5.42a1.93,1.93,0,0,1,1,2c0,1.59-.64,5.46-2,6.77s-5.14,5.35-10.9,5.35S64,89.53,56.65,82.22,42.86,67.51,41.33,60.77,40,51,41.89,48.2Z" fill="#fff"/></svg>