<?xml version="1.0" encoding="UTF-8" standalone="no"?>
<!-- Created with Inkscape (http://www.inkscape.org/) -->

<svg
   version="1.1"
   id="svg2"
   xml:space="preserve"
   width="1306.6667"
   height="266.66666"
   viewBox="0 0 1306.6667 266.66666"
   sodipodi:docname="servicenow-seeklogo.com.ai"
   xmlns:inkscape="http://www.inkscape.org/namespaces/inkscape"
   xmlns:sodipodi="http://sodipodi.sourceforge.net/DTD/sodipodi-0.dtd"
   xmlns="http://www.w3.org/2000/svg"
   xmlns:svg="http://www.w3.org/2000/svg"><defs
     id="defs6"><clipPath
       clipPathUnits="userSpaceOnUse"
       id="clipPath16"><path
         d="M 0,200 H 980 V 0 H 0 Z"
         id="path14" /></clipPath></defs><sodipodi:namedview
     id="namedview4"
     pagecolor="#ffffff"
     bordercolor="#666666"
     borderopacity="1.0"
     inkscape:pageshadow="2"
     inkscape:pageopacity="0.0"
     inkscape:pagecheckerboard="0" /><g
     id="g8"
     inkscape:groupmode="layer"
     inkscape:label="servicenow-seeklogo.com"
     transform="matrix(1.3333333,0,0,-1.3333333,0,266.66667)"><g
       id="g10"><g
         id="g12"
         clip-path="url(#clipPath16)"><g
           id="g18"
           transform="translate(72.6582,101.2925)"><path
             d="m 0,0 v 1.552 c 0,5.436 -4.853,9.32 -11.453,9.32 -6.02,0 -9.9,-3.303 -9.9,-8.155 0,-2.329 0.972,-4.66 2.524,-5.825 2.719,-2.136 2.909,-2.136 15.333,-6.017 20.192,-6.211 28.149,-14.171 28.149,-28.732 0,-17.472 -13.977,-29.12 -34.939,-29.12 -21.359,0 -34.363,10.872 -35.335,29.509 h 23.687 c 1.162,-7.765 4.657,-11.26 11.838,-11.26 5.824,0 9.9,3.495 9.9,8.543 0,5.436 -3.49,7.96 -16.696,12.036 -19.409,5.824 -28.149,14.561 -28.149,28.73 0,17.084 13.788,28.537 34.755,28.537 20.577,0 33.001,-10.869 33.582,-29.118 z"
             style="fill:#2a4f4e;fill-opacity:1;fill-rule:nonzero;stroke:none"
             id="path20" /></g><g
           id="g22"
           transform="translate(174.5557,90.6162)"><path
             d="m 0,0 c -2.139,11.84 -10.677,19.024 -22.911,19.024 -11.838,0 -19.801,-6.795 -22.13,-19.024 z m -45.041,-14.172 c 2.14,-12.425 11.258,-20.189 23.492,-20.189 9.125,0 16.886,4.465 20.773,11.645 l 22.71,-6.212 c -8.929,-17.469 -24.654,-27.373 -43.678,-27.373 -28.54,0 -48.921,20.192 -48.921,48.146 0,28.148 19.605,47.949 47.369,47.949 28.729,0 48.725,-20.189 48.725,-49.114 l -0.195,-4.852 z"
             style="fill:#2a4f4e;fill-opacity:1;fill-rule:nonzero;stroke:none"
             id="path24" /></g><g
           id="g26"
           transform="translate(235.2896,127.3052)"><path
             d="m 0,0 v -13.2 c 2.524,6.6 4.272,9.317 7.957,12.036 3.881,2.717 9.125,4.269 14.564,4.269 0.58,0 1.552,0 2.908,-0.193 v -25.236 c -1.943,0.192 -3.88,0.387 -5.243,0.387 -6.79,0 -13.005,-3.107 -16.5,-8.152 C 0.776,-34.168 0,-38.049 0,-46.592 v -43.29 H -24.659 V 0 Z"
             style="fill:#2a4f4e;fill-opacity:1;fill-rule:nonzero;stroke:none"
             id="path28" /></g><g
           id="g30"
           transform="translate(360.541,127.3052)"><path
             d="M 0,0 -32.812,-89.882 H -58.241 L -90.661,0 h 25.624 L -45.236,-53.581 -25.24,0 Z"
             style="fill:#2a4f4e;fill-opacity:1;fill-rule:nonzero;stroke:none"
             id="path32" /></g><path
           d="m 394.905,37.423 h -24.659 v 89.882 h 24.659 z m 1.357,115.315 c 0,-7.572 -5.825,-13.396 -13.592,-13.396 -7.957,0 -13.781,5.824 -13.781,13.588 0,7.96 5.824,13.784 13.781,13.784 7.963,0 13.592,-5.824 13.592,-13.976"
           style="fill:#2a4f4e;fill-opacity:1;fill-rule:nonzero;stroke:none"
           id="path34" /><g
           id="g36"
           transform="translate(493.3281,47.7119)"><path
             d="m 0,0 c -10.286,-9.317 -20.962,-13.396 -34.554,-13.396 -27.372,0 -47.558,20.191 -47.558,47.564 0,28.341 19.8,48.53 47.754,48.53 13.396,0 24.457,-4.657 35.916,-14.945 L -14.949,52.805 c -5.433,5.435 -11.257,7.957 -18.438,7.957 -13.591,0 -23.687,-11.065 -23.687,-25.818 0,-15.337 10.291,-26.401 24.659,-26.401 6.405,0 11.061,1.94 17.466,7.569 z"
             style="fill:#2a4f4e;fill-opacity:1;fill-rule:nonzero;stroke:none"
             id="path38" /></g><g
           id="g40"
           transform="translate(567.6836,90.6162)"><path
             d="m 0,0 c -2.133,11.84 -10.676,19.024 -22.905,19.024 -11.844,0 -19.8,-6.795 -22.129,-19.024 z m -45.034,-14.172 c 2.133,-12.425 11.257,-20.189 23.486,-20.189 9.124,0 16.892,4.465 20.773,11.645 l 22.715,-6.212 c -8.928,-17.469 -24.659,-27.373 -43.683,-27.373 -28.534,0 -48.916,20.192 -48.916,48.146 0,28.148 19.605,47.949 47.363,47.949 28.735,0 48.732,-20.189 48.732,-49.114 l -0.196,-4.852 z"
             style="fill:#2a4f4e;fill-opacity:1;fill-rule:nonzero;stroke:none"
             id="path42" /></g><g
           id="g44"
           transform="translate(629.0371,127.3052)"><path
             d="M 0,0 V -11.064 C 6.6,-0.776 13.2,3.105 24.457,3.105 33.001,3.105 41.153,0 46.587,-5.24 52.41,-11.064 54.55,-18.248 54.55,-33 V -89.882 H 29.896 v 55.714 c 0,5.047 -0.586,7.96 -2.138,10.484 -2.329,3.688 -6.986,6.019 -11.838,6.019 C 6.404,-17.665 0,-24.849 0,-35.333 V -89.882 H -24.659 V 0 Z"
             style="fill:#2a4f4e;fill-opacity:1;fill-rule:nonzero;stroke:none"
             id="path46" /></g><g
           id="g48"
           transform="translate(950.8877,127.3052)"><path
             d="m 0,0 -29.31,-89.882 h -25.625 l -15.724,55.133 -16.115,-55.133 H -112.98 L -141.905,0 h 25.039 L -98.808,-54.745 -83.083,0 h 23.681 L -43.286,-54.745 -25.038,0 Z"
             style="fill:#2a4f4e;fill-opacity:1;fill-rule:nonzero;stroke:none"
             id="path50" /></g><g
           id="g52"
           transform="translate(943.2773,37.8887)"><path
             d="M 0,0 H -2.544 V 10.943 H 0.274 L 3.558,4.541 6.867,10.943 H 9.686 V 0 H 7.142 V 6.347 L 3.558,-0.466 0,6.347 Z m -6.812,0 h -2.544 v 8.946 h -2.682 v 1.997 h 7.934 V 8.946 h -2.708 z"
             style="fill:#2a4f4e;fill-opacity:1;fill-rule:nonzero;stroke:none"
             id="path54" /></g><g
           id="g56"
           transform="translate(752.3184,50.4922)"><path
             d="M 0,0 C -14.832,0 -26.854,12.023 -26.854,26.855 -26.854,41.688 -14.832,53.71 0,53.71 14.832,53.71 26.855,41.688 26.855,26.855 26.855,12.023 14.832,0 0,0 m -6.159,80.416 c -25.765,-2.856 -46.12,-24.422 -47.648,-50.299 -1.061,-17.99 6.723,-34.177 19.396,-44.692 4.492,-3.727 11.191,-3.468 15.277,0.7 4.865,4.963 11.634,8.045 19.134,8.045 7.503,0 14.272,-3.083 19.137,-8.048 4.067,-4.15 10.747,-4.444 15.224,-0.739 11.931,9.875 19.542,24.772 19.542,41.472 0,31.799 -27.535,57.166 -60.062,53.561"
             style="fill:#81b8a4;fill-opacity:1;fill-rule:nonzero;stroke:none"
             id="path58" /></g></g></g></g></svg>
