<svg xmlns="http://www.w3.org/2000/svg" viewBox="0 0 79.62 76.18"><rect width="79.62" height="76.18" fill="#fff" fill-opacity="0"/><path d="M49.33,27.34A10.42,10.42,0,1,0,31,36.79a10.14,10.14,0,0,0,3.11,3,1.38,1.38,0,0,0,1.65,0,1.2,1.2,0,0,0,.52-1.44,3,3,0,0,0-1-1.21,7.55,7.55,0,0,1,6.06-13.53A7.56,7.56,0,0,1,42,38c-.92.32-1.06.22-1.06-.76,0-2.11,0-4.23,0-6.35,0-.86-.43-1.46-1.18-1.52a19.24,19.24,0,0,0-2.63,0,1.41,1.41,0,0,0-1.23,1.44,1.39,1.39,0,0,0,1.37,1.36h.81c0,1.84,0,3.59,0,5.33a3.68,3.68,0,0,0,.65,2.25,3.42,3.42,0,0,0,4.22,1A10.41,10.41,0,0,0,49.33,27.34Zm0,0A10.42,10.42,0,1,0,31,36.79a10.14,10.14,0,0,0,3.11,3,1.38,1.38,0,0,0,1.65,0,1.2,1.2,0,0,0,.52-1.44,3,3,0,0,0-1-1.21,7.55,7.55,0,0,1,6.06-13.53A7.56,7.56,0,0,1,42,38c-.92.32-1.06.22-1.06-.76,0-2.11,0-4.23,0-6.35,0-.86-.43-1.46-1.18-1.52a19.24,19.24,0,0,0-2.63,0,1.41,1.41,0,0,0-1.23,1.44,1.39,1.39,0,0,0,1.37,1.36h.81c0,1.84,0,3.59,0,5.33a3.68,3.68,0,0,0,.65,2.25,3.42,3.42,0,0,0,4.22,1A10.41,10.41,0,0,0,49.33,27.34Zm0,0A10.42,10.42,0,1,0,31,36.79a10.14,10.14,0,0,0,3.11,3,1.38,1.38,0,0,0,1.65,0,1.2,1.2,0,0,0,.52-1.44,3,3,0,0,0-1-1.21,7.55,7.55,0,0,1,6.06-13.53A7.56,7.56,0,0,1,42,38c-.92.32-1.06.22-1.06-.76,0-2.11,0-4.23,0-6.35,0-.86-.43-1.46-1.18-1.52a19.24,19.24,0,0,0-2.63,0,1.41,1.41,0,0,0-1.23,1.44,1.39,1.39,0,0,0,1.37,1.36h.81c0,1.84,0,3.59,0,5.33a3.68,3.68,0,0,0,.65,2.25,3.42,3.42,0,0,0,4.22,1A10.41,10.41,0,0,0,49.33,27.34Zm0,0A10.42,10.42,0,1,0,31,36.79a10.14,10.14,0,0,0,3.11,3,1.38,1.38,0,0,0,1.65,0,1.2,1.2,0,0,0,.52-1.44,3,3,0,0,0-1-1.21,7.55,7.55,0,0,1,6.06-13.53A7.56,7.56,0,0,1,42,38c-.92.32-1.06.22-1.06-.76,0-2.11,0-4.23,0-6.35,0-.86-.43-1.46-1.18-1.52a19.24,19.24,0,0,0-2.63,0,1.41,1.41,0,0,0-1.23,1.44,1.39,1.39,0,0,0,1.37,1.36h.81c0,1.84,0,3.59,0,5.33a3.68,3.68,0,0,0,.65,2.25,3.42,3.42,0,0,0,4.22,1A10.41,10.41,0,0,0,49.33,27.34Zm0,0A10.42,10.42,0,1,0,31,36.79a10.14,10.14,0,0,0,3.11,3,1.38,1.38,0,0,0,1.65,0,1.2,1.2,0,0,0,.52-1.44,3,3,0,0,0-1-1.21,7.55,7.55,0,0,1,6.06-13.53A7.56,7.56,0,0,1,42,38c-.92.32-1.06.22-1.06-.76,0-2.11,0-4.23,0-6.35,0-.86-.43-1.46-1.18-1.52a19.24,19.24,0,0,0-2.63,0,1.41,1.41,0,0,0-1.23,1.44,1.39,1.39,0,0,0,1.37,1.36h.81c0,1.84,0,3.59,0,5.33a3.68,3.68,0,0,0,.65,2.25,3.42,3.42,0,0,0,4.22,1A10.41,10.41,0,0,0,49.33,27.34Zm0,0A10.42,10.42,0,1,0,31,36.79a10.14,10.14,0,0,0,3.11,3,1.38,1.38,0,0,0,1.65,0,1.2,1.2,0,0,0,.52-1.44,3,3,0,0,0-1-1.21,7.55,7.55,0,0,1,6.06-13.53A7.56,7.56,0,0,1,42,38c-.92.32-1.06.22-1.06-.76,0-2.11,0-4.23,0-6.35,0-.86-.43-1.46-1.18-1.52a19.24,19.24,0,0,0-2.63,0,1.41,1.41,0,0,0-1.23,1.44,1.39,1.39,0,0,0,1.37,1.36h.81c0,1.84,0,3.59,0,5.33a3.68,3.68,0,0,0,.65,2.25,3.42,3.42,0,0,0,4.22,1A10.41,10.41,0,0,0,49.33,27.34Zm0,0A10.42,10.42,0,1,0,31,36.79a10.14,10.14,0,0,0,3.11,3,1.38,1.38,0,0,0,1.65,0,1.2,1.2,0,0,0,.52-1.44,3,3,0,0,0-1-1.21,7.55,7.55,0,0,1,6.06-13.53A7.56,7.56,0,0,1,42,38c-.92.32-1.06.22-1.06-.76,0-2.11,0-4.23,0-6.35,0-.86-.43-1.46-1.18-1.52a19.24,19.24,0,0,0-2.63,0,1.41,1.41,0,0,0-1.23,1.44,1.39,1.39,0,0,0,1.37,1.36h.81c0,1.84,0,3.59,0,5.33a3.68,3.68,0,0,0,.65,2.25,3.42,3.42,0,0,0,4.22,1A10.41,10.41,0,0,0,49.33,27.34Zm0,0A10.42,10.42,0,1,0,31,36.79a10.14,10.14,0,0,0,3.11,3,1.38,1.38,0,0,0,1.65,0,1.2,1.2,0,0,0,.52-1.44,3,3,0,0,0-1-1.21,7.55,7.55,0,0,1,6.06-13.53A7.56,7.56,0,0,1,42,38c-.92.32-1.06.22-1.06-.76,0-2.11,0-4.23,0-6.35,0-.86-.43-1.46-1.18-1.52a19.24,19.24,0,0,0-2.63,0,1.41,1.41,0,0,0-1.23,1.44,1.39,1.39,0,0,0,1.37,1.36h.81c0,1.84,0,3.59,0,5.33a3.68,3.68,0,0,0,.65,2.25,3.42,3.42,0,0,0,4.22,1A10.41,10.41,0,0,0,49.33,27.34Zm0,0A10.42,10.42,0,1,0,31,36.79a10.14,10.14,0,0,0,3.11,3,1.38,1.38,0,0,0,1.65,0,1.2,1.2,0,0,0,.52-1.44,3,3,0,0,0-1-1.21,7.55,7.55,0,0,1,6.06-13.53A7.56,7.56,0,0,1,42,38c-.92.32-1.06.22-1.06-.76,0-2.11,0-4.23,0-6.35,0-.86-.43-1.46-1.18-1.52a19.24,19.24,0,0,0-2.63,0,1.41,1.41,0,0,0-1.23,1.44,1.39,1.39,0,0,0,1.37,1.36h.81c0,1.84,0,3.59,0,5.33a3.68,3.68,0,0,0,.65,2.25,3.42,3.42,0,0,0,4.22,1A10.41,10.41,0,0,0,49.33,27.34Zm0,0A10.42,10.42,0,1,0,31,36.79a10.14,10.14,0,0,0,3.11,3,1.38,1.38,0,0,0,1.65,0,1.2,1.2,0,0,0,.52-1.44,3,3,0,0,0-1-1.21,7.55,7.55,0,0,1,6.06-13.53A7.56,7.56,0,0,1,42,38c-.92.32-1.06.22-1.06-.76,0-2.11,0-4.23,0-6.35,0-.86-.43-1.46-1.18-1.52a19.24,19.24,0,0,0-2.63,0,1.41,1.41,0,0,0-1.23,1.44,1.39,1.39,0,0,0,1.37,1.36h.81c0,1.84,0,3.59,0,5.33a3.68,3.68,0,0,0,.65,2.25,3.42,3.42,0,0,0,4.22,1A10.41,10.41,0,0,0,49.33,27.34Zm16.6-7.59C63.15,12.34,57.43,8,50,5.8c-8.54-2.51-17-1.63-25.13,1.67A18.46,18.46,0,0,0,13.31,20.73a27.93,27.93,0,0,1-1.71,4.82c-1,2.1-1,2.44.69,4a4.11,4.11,0,0,1,1,1.33,5.1,5.1,0,0,1-.1,3.25A14.87,14.87,0,0,1,12,37.29a18.67,18.67,0,0,1-2.94,4c-.69.77-1.34,1.57-2,2.37s-.69,1.1.34,1.76c.42.27.87.49,1.31.73,2.4,1.29,3,3.2,1.7,5.63l-.54,1c2,1.79,2,1.79,1.34,3.63,0,0,0,.11.1.14,2.26,1.45,2.69,2.61,2.16,5.2a5.79,5.79,0,0,0,.06,2.52c.44,1.76,1.46,2.32,3.19,1.78,4.64-1.44,9.29-2.89,13.9-4.42a38.27,38.27,0,0,0,5.11-2.18,3.44,3.44,0,0,0,2-3h0a.47.47,0,0,0-.46-.5H36.5a1.13,1.13,0,0,1-1.21-1.23c0-1.08,0-2.15,0-3.31h8.09c.11,0,.23,0,.4.05,0,1.19,0,2.36,0,3.53a1.07,1.07,0,0,1-1.15,1c-2.47,0-2.46.39-2.44.62a3.54,3.54,0,0,1-.08,1,4.94,4.94,0,0,1-2.15,3.34,27.92,27.92,0,0,1-4,2.19c-1.33.6-2.75,1-4.3,1.54A18.62,18.62,0,0,1,33.42,71c.46,1.31,4.18,4.49,12,4.49s15.43-3.74,14.76-5.27a36,36,0,0,1-3-12.78,22.51,22.51,0,0,1,5.25-15.58C68,35.15,68.9,27.68,65.93,19.75Zm-27.7-9.39a1.36,1.36,0,0,1,1.21-1.24,1.3,1.3,0,0,1,1.35,1,12.55,12.55,0,0,1,0,2.6,1.18,1.18,0,0,1-1.38.91,1.26,1.26,0,0,1-1.17-1.13c0-.36,0-.73,0-1.09h0C38.22,11.05,38.2,10.71,38.23,10.36Zm-13.91,5a1.7,1.7,0,0,1,1.3.08,10.14,10.14,0,0,1,1.69,1.65,1.11,1.11,0,0,1,.07,1.32,1.21,1.21,0,0,1-1.09.72c-.94,0-2.72-1.77-2.71-2.61A1.13,1.13,0,0,1,24.32,15.38ZM20.73,32.17a12.69,12.69,0,0,1-1.95,0,1.35,1.35,0,0,1-1.25-1.39,1.3,1.3,0,0,1,1.34-1.28c.3,0,.6,0,.91,0h0c.28,0,.57,0,.85,0A1.33,1.33,0,0,1,22,30.73,1.38,1.38,0,0,1,20.73,32.17ZM27.2,45.38a14.75,14.75,0,0,1-1.43,1.42,2.17,2.17,0,0,1-.64.3,1.33,1.33,0,0,1-1.39-.69,1.24,1.24,0,0,1,.16-1.48,13.69,13.69,0,0,1,1.42-1.43,1.34,1.34,0,0,1,1.82.06A1.28,1.28,0,0,1,27.2,45.38Zm20-4.15A7.25,7.25,0,0,0,44,45.47a13.91,13.91,0,0,0-.22,1.93c0,.36,0,.73,0,1.14H35.36c-.08-.92-.08-1.82-.23-2.7a6.11,6.11,0,0,0-2.46-4,15.25,15.25,0,0,1-4-4A12.89,12.89,0,1,1,47.2,41.23ZM54.81,47a1.25,1.25,0,0,1-1.44-.1,17.44,17.44,0,0,1-1.55-1.55,1.16,1.16,0,0,1-.14-1.37,1.23,1.23,0,0,1,1.22-.75,4,4,0,0,1,2.58,2.56A1.22,1.22,0,0,1,54.81,47Zm.51-29.79A19.22,19.22,0,0,1,53.53,19a1.07,1.07,0,0,1-.48.16,1.32,1.32,0,0,1-1.35-.69,1.17,1.17,0,0,1,.09-1.38,15.77,15.77,0,0,1,1.64-1.63,1.24,1.24,0,0,1,1.63.12A1.26,1.26,0,0,1,55.32,17.16Zm4.9,15a13.82,13.82,0,0,1-1.82,0,1.39,1.39,0,0,1-1.34-1.38,1.36,1.36,0,0,1,1.4-1.31c.28,0,.57,0,.85,0s.57,0,.85,0a1.31,1.31,0,0,1,1.38,1.3A1.35,1.35,0,0,1,60.22,32.17ZM34.4,21.85A10.38,10.38,0,0,0,31,36.79a10.14,10.14,0,0,0,3.11,3,1.38,1.38,0,0,0,1.65,0,1.2,1.2,0,0,0,.52-1.44,3,3,0,0,0-1-1.21,7.55,7.55,0,0,1,6.06-13.53A7.56,7.56,0,0,1,42,38c-.92.32-1.06.22-1.06-.76,0-2.11,0-4.23,0-6.35,0-.86-.43-1.46-1.18-1.52a19.24,19.24,0,0,0-2.63,0,1.41,1.41,0,0,0-1.23,1.44,1.39,1.39,0,0,0,1.37,1.36h.81c0,1.84,0,3.59,0,5.33a3.68,3.68,0,0,0,.65,2.25,3.42,3.42,0,0,0,4.22,1,10.42,10.42,0,1,0-8.56-18.9Zm14.93,5.49A10.42,10.42,0,1,0,31,36.79a10.14,10.14,0,0,0,3.11,3,1.38,1.38,0,0,0,1.65,0,1.2,1.2,0,0,0,.52-1.44,3,3,0,0,0-1-1.21,7.55,7.55,0,0,1,6.06-13.53A7.56,7.56,0,0,1,42,38c-.92.32-1.06.22-1.06-.76,0-2.11,0-4.23,0-6.35,0-.86-.43-1.46-1.18-1.52a19.24,19.24,0,0,0-2.63,0,1.41,1.41,0,0,0-1.23,1.44,1.39,1.39,0,0,0,1.37,1.36h.81c0,1.84,0,3.59,0,5.33a3.68,3.68,0,0,0,.65,2.25,3.42,3.42,0,0,0,4.22,1A10.41,10.41,0,0,0,49.33,27.34Zm0,0A10.42,10.42,0,1,0,31,36.79a10.14,10.14,0,0,0,3.11,3,1.38,1.38,0,0,0,1.65,0,1.2,1.2,0,0,0,.52-1.44,3,3,0,0,0-1-1.21,7.55,7.55,0,0,1,6.06-13.53A7.56,7.56,0,0,1,42,38c-.92.32-1.06.22-1.06-.76,0-2.11,0-4.23,0-6.35,0-.86-.43-1.46-1.18-1.52a19.24,19.24,0,0,0-2.63,0,1.41,1.41,0,0,0-1.23,1.44,1.39,1.39,0,0,0,1.37,1.36h.81c0,1.84,0,3.59,0,5.33a3.68,3.68,0,0,0,.65,2.25,3.42,3.42,0,0,0,4.22,1A10.41,10.41,0,0,0,49.33,27.34Zm0,0A10.42,10.42,0,1,0,31,36.79a10.14,10.14,0,0,0,3.11,3,1.38,1.38,0,0,0,1.65,0,1.2,1.2,0,0,0,.52-1.44,3,3,0,0,0-1-1.21,7.55,7.55,0,0,1,6.06-13.53A7.56,7.56,0,0,1,42,38c-.92.32-1.06.22-1.06-.76,0-2.11,0-4.23,0-6.35,0-.86-.43-1.46-1.18-1.52a19.24,19.24,0,0,0-2.63,0,1.41,1.41,0,0,0-1.23,1.44,1.39,1.39,0,0,0,1.37,1.36h.81c0,1.84,0,3.59,0,5.33a3.68,3.68,0,0,0,.65,2.25,3.42,3.42,0,0,0,4.22,1A10.41,10.41,0,0,0,49.33,27.34Zm0,0A10.42,10.42,0,1,0,31,36.79a10.14,10.14,0,0,0,3.11,3,1.38,1.38,0,0,0,1.65,0,1.2,1.2,0,0,0,.52-1.44,3,3,0,0,0-1-1.21,7.55,7.55,0,0,1,6.06-13.53A7.56,7.56,0,0,1,42,38c-.92.32-1.06.22-1.06-.76,0-2.11,0-4.23,0-6.35,0-.86-.43-1.46-1.18-1.52a19.24,19.24,0,0,0-2.63,0,1.41,1.41,0,0,0-1.23,1.44,1.39,1.39,0,0,0,1.37,1.36h.81c0,1.84,0,3.59,0,5.33a3.68,3.68,0,0,0,.65,2.25,3.42,3.42,0,0,0,4.22,1A10.41,10.41,0,0,0,49.33,27.34Zm0,0A10.42,10.42,0,1,0,31,36.79a10.14,10.14,0,0,0,3.11,3,1.38,1.38,0,0,0,1.65,0,1.2,1.2,0,0,0,.52-1.44,3,3,0,0,0-1-1.21,7.55,7.55,0,0,1,6.06-13.53A7.56,7.56,0,0,1,42,38c-.92.32-1.06.22-1.06-.76,0-2.11,0-4.23,0-6.35,0-.86-.43-1.46-1.18-1.52a19.24,19.24,0,0,0-2.63,0,1.41,1.41,0,0,0-1.23,1.44,1.39,1.39,0,0,0,1.37,1.36h.81c0,1.84,0,3.59,0,5.33a3.68,3.68,0,0,0,.65,2.25,3.42,3.42,0,0,0,4.22,1A10.41,10.41,0,0,0,49.33,27.34Zm0,0A10.42,10.42,0,1,0,31,36.79a10.14,10.14,0,0,0,3.11,3,1.38,1.38,0,0,0,1.65,0,1.2,1.2,0,0,0,.52-1.44,3,3,0,0,0-1-1.21,7.55,7.55,0,0,1,6.06-13.53A7.56,7.56,0,0,1,42,38c-.92.32-1.06.22-1.06-.76,0-2.11,0-4.23,0-6.35,0-.86-.43-1.46-1.18-1.52a19.24,19.24,0,0,0-2.63,0,1.41,1.41,0,0,0-1.23,1.44,1.39,1.39,0,0,0,1.37,1.36h.81c0,1.84,0,3.59,0,5.33a3.68,3.68,0,0,0,.65,2.25,3.42,3.42,0,0,0,4.22,1A10.41,10.41,0,0,0,49.33,27.34Zm0,0A10.42,10.42,0,1,0,31,36.79a10.14,10.14,0,0,0,3.11,3,1.38,1.38,0,0,0,1.65,0,1.2,1.2,0,0,0,.52-1.44,3,3,0,0,0-1-1.21,7.55,7.55,0,0,1,6.06-13.53A7.56,7.56,0,0,1,42,38c-.92.32-1.06.22-1.06-.76,0-2.11,0-4.23,0-6.35,0-.86-.43-1.46-1.18-1.52a19.24,19.24,0,0,0-2.63,0,1.41,1.41,0,0,0-1.23,1.44,1.39,1.39,0,0,0,1.37,1.36h.81c0,1.84,0,3.59,0,5.33a3.68,3.68,0,0,0,.65,2.25,3.42,3.42,0,0,0,4.22,1A10.41,10.41,0,0,0,49.33,27.34Zm0,0A10.42,10.42,0,1,0,31,36.79a10.14,10.14,0,0,0,3.11,3,1.38,1.38,0,0,0,1.65,0,1.2,1.2,0,0,0,.52-1.44,3,3,0,0,0-1-1.21,7.55,7.55,0,0,1,6.06-13.53A7.56,7.56,0,0,1,42,38c-.92.32-1.06.22-1.06-.76,0-2.11,0-4.23,0-6.35,0-.86-.43-1.46-1.18-1.52a19.24,19.24,0,0,0-2.63,0,1.41,1.41,0,0,0-1.23,1.44,1.39,1.39,0,0,0,1.37,1.36h.81c0,1.84,0,3.59,0,5.33a3.68,3.68,0,0,0,.65,2.25,3.42,3.42,0,0,0,4.22,1A10.41,10.41,0,0,0,49.33,27.34Z" fill="#2e5eaa"/><path d="M40.85,26.53A1.49,1.49,0,1,1,39.37,25,1.48,1.48,0,0,1,40.85,26.53Z" fill="#f06530"/><path d="M49.33,27.34A10.42,10.42,0,1,0,31,36.79a10.14,10.14,0,0,0,3.11,3,1.38,1.38,0,0,0,1.65,0,1.2,1.2,0,0,0,.52-1.44,3,3,0,0,0-1-1.21,7.55,7.55,0,0,1,6.06-13.53A7.56,7.56,0,0,1,42,38c-.92.32-1.06.22-1.06-.76,0-2.11,0-4.23,0-6.35,0-.86-.43-1.46-1.18-1.52a19.24,19.24,0,0,0-2.63,0,1.41,1.41,0,0,0-1.23,1.44,1.39,1.39,0,0,0,1.37,1.36h.81c0,1.84,0,3.59,0,5.33a3.68,3.68,0,0,0,.65,2.25,3.42,3.42,0,0,0,4.22,1A10.41,10.41,0,0,0,49.33,27.34Z" fill="#f06530"/></svg>